<svg width="480" height="128" viewBox="0 0 480 128" fill="none" xmlns="http://www.w3.org/2000/svg">
  <rect x="4" y="8" width="112" height="112" rx="30" fill="#07111F"/>
  <rect x="16" y="20" width="88" height="88" rx="24" fill="url(#logo_gradient)"/>
  <path d="M38 39C38 35.6863 40.6863 33 44 33H82C84.2824 33 86.3675 34.294 87.381 36.3391C88.3945 38.3841 88.1607 40.8233 86.7774 42.6394L58.3571 80H82C85.3137 80 88 82.6863 88 86C88 89.3137 85.3137 92 82 92H42C39.7049 92 37.6105 90.6918 36.6035 88.6294C35.5965 86.567 35.8528 84.1094 37.2644 82.3L65.75 45H44C40.6863 45 38 42.3137 38 39Z" fill="white"/>
  <path d="M36 33H88C90.2091 33 92 34.7909 92 37V48H80V45H44V48H32V37C32 34.7909 33.7909 33 36 33Z" fill="white" fill-opacity=".22"/>
  <path d="M43 75H89C92.3137 75 95 77.6863 95 81V95C95 98.3137 92.3137 101 89 101H43C39.6863 101 37 98.3137 37 95V88H49V89H83V87H43V75Z" fill="white" fill-opacity=".28"/>
  <path d="M146.56 44.28H207.4V55.4L163.36 91.96H208.12V106H145.12V94.88L189.16 58.32H146.56V44.28Z" fill="#0F172A"/>
  <path d="M219.501 78.2C219.501 61.52 231.501 50.72 247.341 50.72C263.181 50.72 275.181 61.52 275.181 78.2C275.181 94.88 263.181 107.08 247.341 107.08C231.501 107.08 219.501 94.88 219.501 78.2ZM259.461 78.2C259.461 69.2 254.301 63.68 247.341 63.68C240.381 63.68 235.221 69.2 235.221 78.2C235.221 87.32 240.381 94.12 247.341 94.12C254.301 94.12 259.461 87.32 259.461 78.2Z" fill="#0F172A"/>
  <path d="M286.994 51.8H301.834V58.4C305.314 53.6 310.594 50.72 317.314 50.72C329.074 50.72 336.274 58.76 336.274 72.08V106H320.554V74.24C320.554 67.52 317.074 63.92 311.554 63.92C305.554 63.92 302.714 67.76 302.714 74.24V106H286.994V51.8Z" fill="#0F172A"/>
  <path d="M348.097 90.64C348.097 79.64 357.097 74 373.537 74H383.257V72.44C383.257 66.44 379.777 63.2 372.937 63.2C366.817 63.2 361.897 65.48 357.577 69.08L350.257 58.76C356.617 53.24 365.017 50.72 374.977 50.72C390.817 50.72 398.497 58.52 398.497 72.8V106H384.017V100.36C380.177 104.8 374.537 107.08 367.817 107.08C356.137 107.08 348.097 100.96 348.097 90.64ZM383.257 85.84V83.36H374.737C367.417 83.36 363.337 85.48 363.337 89.92C363.337 93.76 366.217 96.04 371.257 96.04C378.097 96.04 383.257 92.08 383.257 85.84Z" fill="#0F172A"/>
  <path d="M146 21H159.92V33.2L171.28 21H188.08L171.76 38.28L189.16 64H172.72L161.92 47.28L159.92 49.44V64H146V21Z" fill="url(#text_gradient)"/>
  <path d="M195.055 48.64C195.055 37.64 204.055 32 220.495 32H230.215V30.44C230.215 24.44 226.735 21.2 219.895 21.2C213.775 21.2 208.855 23.48 204.535 27.08L197.215 16.76C203.575 11.24 211.975 8.72 221.935 8.72C237.775 8.72 245.455 16.52 245.455 30.8V64H230.975V58.36C227.135 62.8 221.495 65.08 214.775 65.08C203.095 65.08 195.055 58.96 195.055 48.64ZM230.215 43.84V41.36H221.695C214.375 41.36 210.295 43.48 210.295 47.92C210.295 51.76 213.175 54.04 218.215 54.04C225.055 54.04 230.215 50.08 230.215 43.84Z" fill="url(#text_gradient)"/>
  <path d="M257.692 58.72L264.532 48.64C270.172 52.96 275.212 54.88 281.212 54.88C286.492 54.88 289.132 53.32 289.132 50.32C289.132 47.44 286.972 46.6 279.772 45.28C266.452 42.92 260.452 38.6 260.452 28.64C260.452 18.68 268.852 8.72 283.452 8.72C292.092 8.72 299.292 11.12 305.532 16.04L298.572 26C293.532 22.64 288.852 20.92 283.452 20.92C278.652 20.92 275.932 22.6 275.932 25.36C275.932 28.36 278.572 29.08 285.772 30.44C298.852 32.84 304.972 37.4 304.972 47.08C304.972 58.36 296.212 65.08 281.092 65.08C271.612 65.08 263.932 62.68 257.692 58.72Z" fill="url(#text_gradient)"/>
  <path d="M318.275 51.8H333.995V106H318.275V51.8Z" fill="url(#text_gradient)"/>
  <path d="M348.06 51.8H362.9V60.2C366.02 54.2 371.06 51.08 377.78 51.08C379.22 51.08 380.66 51.2 382.1 51.56V66.04C380.3 65.56 378.5 65.32 376.58 65.32C368.54 65.32 363.78 69.64 363.78 79.12V106H348.06V51.8Z" fill="url(#text_gradient)"/>
  <defs>
    <linearGradient id="logo_gradient" x1="20" y1="23" x2="101" y2="104" gradientUnits="userSpaceOnUse">
      <stop stop-color="#38BDF8"/>
      <stop offset=".45" stop-color="#7C3AED"/>
      <stop offset="1" stop-color="#10B981"/>
    </linearGradient>
    <linearGradient id="text_gradient" x1="146" y1="8" x2="383" y2="106" gradientUnits="userSpaceOnUse">
      <stop stop-color="#2563EB"/>
      <stop offset=".48" stop-color="#7C3AED"/>
      <stop offset="1" stop-color="#059669"/>
    </linearGradient>
  </defs>
</svg>
